<mxfile host="Electron" agent="Mozilla/5.0 (Windows NT 10.0; Win64; x64) AppleWebKit/537.36 (KHTML, like Gecko) draw.io/26.0.16 Chrome/132.0.6834.196 Electron/34.2.0 Safari/537.36" version="26.0.16">
  <diagram name="페이지-1" id="QEjh-ckQQMiDoIN1lDDy">
    <mxGraphModel dx="317" dy="472" grid="1" gridSize="10" guides="1" tooltips="1" connect="1" arrows="1" fold="1" page="1" pageScale="1" pageWidth="1169" pageHeight="827" math="0" shadow="0">
      <root>
        <mxCell id="0" />
        <mxCell id="1" parent="0" />
        <mxCell id="x5YryKngT4NEzGyYIRzW-1" value="" style="endArrow=classic;html=1;rounded=0;entryX=0;entryY=0.25;entryDx=0;entryDy=0;" parent="1" target="x5YryKngT4NEzGyYIRzW-5" edge="1">
          <mxGeometry width="50" height="50" relative="1" as="geometry">
            <mxPoint x="140" y="290" as="sourcePoint" />
            <mxPoint x="180" y="309.9999999999999" as="targetPoint" />
          </mxGeometry>
        </mxCell>
        <mxCell id="x5YryKngT4NEzGyYIRzW-2" style="edgeStyle=orthogonalEdgeStyle;rounded=0;orthogonalLoop=1;jettySize=auto;html=1;exitX=1;exitY=0.25;exitDx=0;exitDy=0;entryX=0;entryY=0.25;entryDx=0;entryDy=0;startArrow=classic;startFill=1;" parent="1" source="x5YryKngT4NEzGyYIRzW-5" target="x5YryKngT4NEzGyYIRzW-6" edge="1">
          <mxGeometry relative="1" as="geometry" />
        </mxCell>
        <mxCell id="x5YryKngT4NEzGyYIRzW-3" style="edgeStyle=orthogonalEdgeStyle;rounded=0;orthogonalLoop=1;jettySize=auto;html=1;exitX=1;exitY=0.5;exitDx=0;exitDy=0;entryX=0;entryY=0.5;entryDx=0;entryDy=0;" parent="1" source="x5YryKngT4NEzGyYIRzW-5" target="x5YryKngT4NEzGyYIRzW-6" edge="1">
          <mxGeometry relative="1" as="geometry" />
        </mxCell>
        <mxCell id="x5YryKngT4NEzGyYIRzW-5" value="MASTER" style="rounded=0;whiteSpace=wrap;html=1;fontSize=18;fontStyle=1;fillColor=#f5f5f5;fontColor=#333333;strokeColor=#666666;" parent="1" vertex="1">
          <mxGeometry x="220" y="240" width="120" height="200" as="geometry" />
        </mxCell>
        <mxCell id="x5YryKngT4NEzGyYIRzW-6" value="MASTER" style="rounded=0;whiteSpace=wrap;html=1;fontSize=18;fontStyle=1;fillColor=#ffe6cc;strokeColor=#d79b00;" parent="1" vertex="1">
          <mxGeometry x="400" y="240" width="120" height="200" as="geometry" />
        </mxCell>
        <mxCell id="x5YryKngT4NEzGyYIRzW-7" value="" style="endArrow=classic;html=1;rounded=0;entryX=0;entryY=0.5;entryDx=0;entryDy=0;exitX=0;exitY=0.5;exitDx=0;exitDy=0;" parent="1" edge="1" source="x5YryKngT4NEzGyYIRzW-5">
          <mxGeometry width="50" height="50" relative="1" as="geometry">
            <mxPoint x="180" y="329.9999999999999" as="sourcePoint" />
            <mxPoint x="140" y="340" as="targetPoint" />
          </mxGeometry>
        </mxCell>
        <mxCell id="x5YryKngT4NEzGyYIRzW-9" value="txdata" style="text;html=1;align=center;verticalAlign=middle;whiteSpace=wrap;rounded=0;" parent="1" vertex="1">
          <mxGeometry x="110" y="280" width="60" height="10" as="geometry" />
        </mxCell>
        <mxCell id="x5YryKngT4NEzGyYIRzW-10" value="rxdata" style="text;html=1;align=center;verticalAlign=middle;whiteSpace=wrap;rounded=0;" parent="1" vertex="1">
          <mxGeometry x="110" y="330" width="60" height="10" as="geometry" />
        </mxCell>
        <mxCell id="x5YryKngT4NEzGyYIRzW-12" value="SDA" style="text;html=1;align=center;verticalAlign=middle;whiteSpace=wrap;rounded=0;" parent="1" vertex="1">
          <mxGeometry x="340" y="280" width="60" height="10" as="geometry" />
        </mxCell>
        <mxCell id="x5YryKngT4NEzGyYIRzW-13" value="SCL" style="text;html=1;align=center;verticalAlign=middle;whiteSpace=wrap;rounded=0;" parent="1" vertex="1">
          <mxGeometry x="340" y="330" width="60" height="10" as="geometry" />
        </mxCell>
      </root>
    </mxGraphModel>
  </diagram>
</mxfile>
